<svg width="150" height="150" viewBox="0 0 150 150" xmlns="http://www.w3.org/2000/svg">
                    <defs>
                        <linearGradient id="adminBg" x1="0%" y1="0%" x2="100%" y2="100%">
                            <stop offset="0%" style="stop-color:#991b1b;stop-opacity:1"/>
                            <stop offset="100%" style="stop-color:#7f1d1d;stop-opacity:1"/>
                        </linearGradient>
                        <linearGradient id="blazerGradient" x1="0%" y1="0%" x2="100%" y2="100%">
                            <stop offset="0%" style="stop-color:#1f2937;stop-opacity:1"/>
                            <stop offset="100%" style="stop-color:#111827;stop-opacity:1"/>
                        </linearGradient>
                    </defs>
                    
                    <!-- Background circle -->
                    <circle cx="75" cy="75" r="75" fill="url(#adminBg)"/>
                    
                    <!-- Blazer -->
                    <path d="M45 120 L45 90 Q45 80 55 80 L95 80 Q105 80 105 90 L105 120 Q105 135 95 135 L55 135 Q45 135 45 120 Z" fill="url(#blazerGradient)"/>
                    
                    <!-- Blouse -->
                    <path d="M60 80 L60 135 L90 135 L90 80 Z" fill="white"/>
                    
                    <!-- Collar -->
                    <path d="M60 80 L70 90 L75 85 L80 90 L90 80" fill="white" stroke="#e5e7eb" stroke-width="1"/>
                    
                    <!-- Face -->
                    <circle cx="75" cy="65" r="20" fill="#fef3c7" stroke="#f59e0b" stroke-width="1"/>
                    
                    <!-- Eyes -->
                    <circle cx="70" cy="62" r="2" fill="#1f2937"/>
                    <circle cx="80" cy="62" r="2" fill="#1f2937"/>
                    <circle cx="71" cy="61" r="0.5" fill="white"/>
                    <circle cx="81" cy="61" r="0.5" fill="white"/>
                    
                    <!-- Eyebrows -->
                    <path d="M67 58 L73 57" stroke="#6b7280" stroke-width="1.5" stroke-linecap="round"/>
                    <path d="M77 57 L83 58" stroke="#6b7280" stroke-width="1.5" stroke-linecap="round"/>
                    
                    <!-- Nose -->
                    <path d="M75 64 L73 67 L77 67 Z" fill="#f59e0b"/>
                    
                    <!-- Smile -->
                    <path d="M70 70 Q75 75 80 70" stroke="#1f2937" stroke-width="1.5" fill="none" stroke-linecap="round"/>
                    
                    <!-- Hair (professional bob) -->
                    <path d="M55 60 Q55 35 75 35 Q95 35 95 60 Q95 65 90 68 Q85 70 80 69 Q75 68 70 69 Q65 70 60 68 Q55 65 55 60 Z" fill="#374151"/>
                    
                    <!-- Earrings -->
                    <circle cx="57" cy="65" r="2" fill="#dc2626"/>
                    <circle cx="93" cy="65" r="2" fill="#dc2626"/>
                    
                    <!-- Office supplies -->
                    <rect x="20" y="115" width="15" height="20" fill="#dc2626" rx="2"/>
                    <rect x="22" y="117" width="11" height="16" fill="white" rx="1"/>
                    <line x1="25" y1="120" x2="30" y2="120" stroke="#dc2626" stroke-width="1"/>
                    <line x1="25" y1="123" x2="32" y2="123" stroke="#dc2626" stroke-width="1"/>
                    <line x1="25" y1="126" x2="29" y2="126" stroke="#dc2626" stroke-width="1"/>
                    
                    <!-- Calculator -->
                    <rect x="115" y="118" width="18" height="22" fill="#374151" rx="2"/>
                    <rect x="117" y="120" width="14" height="8" fill="#1f2937" rx="1"/>
                    <circle cx="120" cy="132" r="1" fill="#dc2626"/>
                    <circle cx="124" cy="132" r="1" fill="#6b7280"/>
                    <circle cx="128" cy="132" r="1" fill="#6b7280"/>
                    <circle cx="120" cy="136" r="1" fill="#6b7280"/>
                    <circle cx="124" cy="136" r="1" fill="#6b7280"/>
                    <circle cx="128" cy="136" r="1" fill="#6b7280"/>
                </svg>