<svg width="150" height="150" viewBox="0 0 150 150" xmlns="http://www.w3.org/2000/svg">
                    <defs>
                        <linearGradient id="studentBg" x1="0%" y1="0%" x2="100%" y2="100%">
                            <stop offset="0%" style="stop-color:#dc2626;stop-opacity:1"/>
                            <stop offset="100%" style="stop-color:#b91c1c;stop-opacity:1"/>
                        </linearGradient>
                        <linearGradient id="capGradient" x1="0%" y1="0%" x2="100%" y2="100%">
                            <stop offset="0%" style="stop-color:#991b1b;stop-opacity:1"/>
                            <stop offset="100%" style="stop-color:#7f1d1d;stop-opacity:1"/>
                        </linearGradient>
                    </defs>
                    
                    <!-- Background circle -->
                    <circle cx="75" cy="75" r="75" fill="url(#studentBg)"/>
                    
                    <!-- Face -->
                    <circle cx="75" cy="65" r="25" fill="#fef3c7" stroke="#f59e0b" stroke-width="2"/>
                    
                    <!-- Eyes -->
                    <circle cx="68" cy="60" r="3" fill="#1f2937"/>
                    <circle cx="82" cy="60" r="3" fill="#1f2937"/>
                    <circle cx="69" cy="59" r="1" fill="white"/>
                    <circle cx="83" cy="59" r="1" fill="white"/>
                    
                    <!-- Nose -->
                    <path d="M75 63 L73 67 L77 67 Z" fill="#f59e0b"/>
                    
                    <!-- Smile -->
                    <path d="M68 70 Q75 77 82 70" stroke="#1f2937" stroke-width="2" fill="none" stroke-linecap="round"/>
                    
                    <!-- Graduation cap base -->
                    <ellipse cx="75" cy="45" rx="30" ry="8" fill="url(#capGradient)"/>
                    
                    <!-- Graduation cap top -->
                    <rect x="55" y="40" width="40" height="5" fill="url(#capGradient)" rx="2"/>
                    
                    <!-- Tassel -->
                    <line x1="85" y1="42" x2="95" y2="35" stroke="#fbbf24" stroke-width="2"/>
                    <circle cx="95" cy="35" r="3" fill="#fbbf24"/>
                    
                    <!-- Books -->
                    <rect x="20" y="110" width="12" height="18" fill="#dc2626" rx="1"/>
                    <rect x="35" y="108" width="12" height="20" fill="#b91c1c" rx="1"/>
                    <rect x="50" y="112" width="12" height="16" fill="#991b1b" rx="1"/>
                    
                    <!-- Laptop -->
                    <rect x="100" y="115" width="25" height="15" fill="#374151" rx="2"/>
                    <rect x="102" y="117" width="21" height="11" fill="#1f2937" rx="1"/>
                    <circle cx="112" cy="123" r="1" fill="#dc2626"/>
                </svg>